#!OML:ASF F:\VICON\USERDATA\INSTALL\rory3\rory3.ASF
:FULLY-SPECIFIED
:DEGREES
404
root -0.440692 17.5989 9.66797 355.83 7.9509 357.515
lowerback 11.2856 0.746724 -3.25744
upperback -0.397476 0.640661 1.18295
thorax -6.81567 0.450641 2.98025
lowerneck -12.0523 -9.58679 -14.6915
upperneck 31.3436 -14.667 12.7803
head 15.0798 -6.59627 5.24147
rclavicle 5.95578e-015 4.37326e-015
rhumerus -41.2017 -24.6522 -73.2027
rradius 32.9368
rwrist 6.32634
rhand -22.7734 7.93456
rfingers 7.12502
rthumb 3.66197 -22.0137
lclavicle 5.95578e-015 4.37326e-015
lhumerus -37.4431 20.2275 66.2119
lradius 27.8095
lwrist -9.85982
lhand -20.0799 26.4594
lfingers 7.12502
lthumb 6.26266 56.3468
rfemur -4.1543 -1.7079 10.0018
rtibia 24.0871
rfoot -8.95122 -5.58957
rtoes -16.0874
lfemur 2.34078 -7.401 -0.540303
ltibia 23.6698
lfoot 0.565308 11.4725
ltoes -25.4296
405
root -0.579212 17.6219 9.6893 355.773 7.11124 357.079
lowerback 11.4522 0.870355 -2.81593
upperback -0.359933 0.864437 1.24341
thorax -6.88063 0.546161 2.7549
lowerneck -12.2714 -9.54302 -14.6075
upperneck 31.3208 -14.6089 12.823
head 15.104 -6.54835 5.24872
rclavicle 5.34078e-015 -5.56597e-015
rhumerus -40.7269 -24.3332 -73.7329
rradius 32.6156
rwrist 6.89934
rhand -22.7184 8.01906
rfingers 7.12502
rthumb 3.71502 -21.9283
lclavicle 5.34078e-015 -5.56597e-015
lhumerus -37.6058 20.9341 65.8721
lradius 28.0085
lwrist -9.17597
lhand -20.4963 27.2666
lfingers 7.12502
lthumb 5.86066 57.1656
rfemur -4.51836 -1.5641 10.9911
rtibia 24.2733
rfoot -8.96398 -4.90374
rtoes -15.3115
lfemur 2.51191 -7.62285 0.124423
ltibia 23.9249
lfoot 1.79522 12.4843
ltoes -23.6703
406
root -0.714916 17.6457 9.70782 355.648 6.25203 356.528
lowerback 11.6364 1.00354 -2.22259
upperback -0.268014 1.12453 1.32518
thorax -6.89424 0.652913 2.45879
lowerneck -12.5087 -9.52495 -14.4881
upperneck 31.262 -14.5875 12.8535
head 15.1177 -6.51236 5.23448
rclavicle -3.16502e-015 1.33186e-014
rhumerus -40.2147 -24.1622 -74.1731
rradius 32.2973
rwrist 7.58624
rhand -22.3549 8.00433
rfingers 7.12502
rthumb 4.06604 -21.9366
lclavicle -3.16502e-015 1.33186e-014
lhumerus -37.6809 21.6934 65.585
lradius 28.1664
lwrist -8.27238
lhand -20.9456 27.723
lfingers 7.12502
lthumb 5.42686 57.6335
rfemur -4.75492 -1.47036 12.1404
rtibia 24.3987
rfoot -8.9618 -4.2891
rtoes -15.679
lfemur 2.71448 -8.03196 0.809352
ltibia 24.2612
lfoot 3.27942 13.722
ltoes -22.1748
407
root -0.848713 17.6677 9.72029 355.602 5.42803 356.181
lowerback 11.8133 1.16103 -1.82631
upperback -0.172924 1.3874 1.3493
thorax -6.89952 0.766884 2.21195
lowerneck -12.6963 -9.52049 -14.4015
upperneck 31.1306 -14.5938 12.9395
head 15.1009 -6.48822 5.24263
rclavicle 1.41758e-014 9.54166e-015
rhumerus -39.7093 -23.8207 -74.7449
rradius 32.1371
rwrist 7.64916
rhand -22.4323 8.01783
rfingers 7.12502
rthumb 3.9913 -21.9245
lclavicle 1.41758e-014 9.54166e-015
lhumerus -37.7908 22.3058 65.3914
lradius 28.4285
lwrist -7.19442
lhand -21.1278 27.5002
lfingers 7.12502
lthumb 5.25092 57.4151
rfemur -4.97283 -1.33941 13.0684
rtibia 24.4355
rfoot -9.03803 -3.77382
rtoes -15.723
lfemur 2.8257 -8.57652 1.1863
ltibia 24.6365
lfoot 4.727 15.0465
ltoes -20.746
408
root -0.980412 17.6907 9.73349 355.676 4.74171 356.116
lowerback 11.8303 1.26147 -1.69737
upperback -0.0384799 1.53437 1.29689
thorax -6.76876 0.830731 2.058
lowerneck -12.9748 -9.48483 -14.3172
upperneck 30.975 -14.5325 13.0157
head 15.0797 -6.43282 5.25655
rclavicle 2.52829e-015 -4.77083e-015
rhumerus -39.0533 -23.4486 -75.3667
rradius 31.971
rwrist 7.94896
rhand -22.5619 8.63523
rfingers 7.12502
rthumb 3.8662 -21.3094
lclavicle 2.52829e-015 -4.77083e-015
lhumerus -37.9778 22.7537 65.2875
lradius 28.9467
lwrist -6.11212
lhand -21.0839 27.1072
lfingers 7.12502
lthumb 5.29331 57.0211
rfemur -5.20814 -1.10542 13.687
rtibia 24.3931
rfoot -8.98802 -3.48261
rtoes -15.3477
lfemur 2.78759 -9.20184 1.20897
ltibia 25.0075
lfoot 5.88059 16.3865
ltoes -18.6424
409
root -1.11369 17.7171 9.75283 355.786 4.24686 356.191
lowerback 11.7269 1.26059 -1.74686
upperback 0.11743 1.52163 1.21633
thorax -6.54297 0.821254 2.00576
lowerneck -13.3259 -9.36136 -14.1464
upperneck 30.8224 -14.3241 13.0125
head 15.0302 -6.31058 5.24974
rclavicle 9.65348e-015 -1.03368e-014
rhumerus -38.4015 -22.9602 -76.0482
rradius 31.9283
rwrist 8.38905
rhand -22.5409 9.33944
rfingers 7.12502
rthumb 3.88642 -20.6049
lclavicle 9.65348e-015 -1.03368e-014
lhumerus -38.1068 23.3125 65.1657
lradius 29.3508
lwrist -5.10912
lhand -20.9813 27.039
lfingers 7.12502
lthumb 5.39239 56.9504
rfemur -5.35147 -0.800812 14.1455
rtibia 24.3026
rfoot -8.98671 -3.30964
rtoes -13.9667
lfemur 2.67175 -9.90032 1.05469
ltibia 25.3707
lfoot 6.76777 17.8655
ltoes -15.4134
